<mxfile host="app.diagrams.net" agent="Mozilla/5.0 (X11; Linux x86_64; rv:144.0) Gecko/20100101 Firefox/144.0" version="28.2.8">
  <diagram name="Page 1" id="Page-1">
    <mxGraphModel dx="732" dy="874" grid="1" gridSize="10" guides="1" tooltips="1" connect="1" arrows="1" fold="1" page="1" pageScale="1" pageWidth="827" pageHeight="1169" math="1" shadow="0">
      <root>
        <mxCell id="0" />
        <mxCell id="1" parent="0" />
        <mxCell id="j2CR8f1PHqKJb8Jv-K0H-37" value="$$\theta$$" style="text;html=1;whiteSpace=wrap;strokeColor=none;fillColor=none;align=center;verticalAlign=middle;rounded=0;fontFamily=Helvetica;fontSize=11;fontColor=default;labelBackgroundColor=default;" parent="1" vertex="1">
          <mxGeometry x="425" y="339" width="20" height="20" as="geometry" />
        </mxCell>
        <mxCell id="j2CR8f1PHqKJb8Jv-K0H-30" value="90&lt;sup&gt;o&lt;/sup&gt;" style="text;html=1;whiteSpace=wrap;strokeColor=none;fillColor=none;align=center;verticalAlign=middle;rounded=0;fontFamily=Helvetica;fontSize=11;fontColor=default;labelBackgroundColor=default;convertToSvg=1;" parent="1" vertex="1">
          <mxGeometry x="89.71" y="349" width="40" height="20" as="geometry" />
        </mxCell>
        <UserObject label="" tags="Ã‰lectrique Lien" id="22">
          <mxCell parent="1" vertex="1" visible="0">
            <mxGeometry as="geometry" />
          </mxCell>
        </UserObject>
        <mxCell id="X-M7ohwvojVqTbKEK9S0-22" value="" style="pointerEvents=1;verticalLabelPosition=bottom;shadow=0;dashed=0;align=center;html=1;verticalAlign=top;shape=mxgraph.electrical.waveforms.sine_wave;strokeColor=light-dark(#33FF33,#33FF33);" parent="1" vertex="1">
          <mxGeometry x="80" y="240" width="240" height="120" as="geometry" />
        </mxCell>
        <mxCell id="X-M7ohwvojVqTbKEK9S0-24" value="" style="endArrow=classic;html=1;rounded=0;endFill=1;" parent="1" edge="1">
          <mxGeometry width="50" height="50" relative="1" as="geometry">
            <mxPoint x="80" y="300" as="sourcePoint" />
            <mxPoint x="370" y="300" as="targetPoint" />
          </mxGeometry>
        </mxCell>
        <mxCell id="X-M7ohwvojVqTbKEK9S0-26" value="" style="endArrow=classic;html=1;rounded=0;endFill=1;" parent="1" edge="1">
          <mxGeometry width="50" height="50" relative="1" as="geometry">
            <mxPoint x="80" y="360" as="sourcePoint" />
            <mxPoint x="80" y="240" as="targetPoint" />
          </mxGeometry>
        </mxCell>
        <mxCell id="X-M7ohwvojVqTbKEK9S0-27" value="t" style="text;html=1;whiteSpace=wrap;strokeColor=none;fillColor=none;align=center;verticalAlign=middle;rounded=0;flipV=0;flipH=0;direction=south;rotation=0;" parent="1" vertex="1">
          <mxGeometry x="346" y="299" width="20" height="20" as="geometry" />
        </mxCell>
        <mxCell id="X-M7ohwvojVqTbKEK9S0-43" value="" style="curved=1;endArrow=none;html=1;rounded=0;exitX=0.25;exitY=0.125;exitDx=0;exitDy=0;exitPerimeter=0;entryX=0.75;entryY=0.874;entryDx=0;entryDy=0;entryPerimeter=0;endFill=0;strokeColor=light-dark(#FF3333,#FF3333);" parent="1" edge="1">
          <mxGeometry width="50" height="50" relative="1" as="geometry">
            <mxPoint x="80" y="255" as="sourcePoint" />
            <mxPoint x="200" y="344.88" as="targetPoint" />
            <Array as="points">
              <mxPoint x="100" y="255" />
              <mxPoint x="140" y="300" />
              <mxPoint x="180" y="345" />
            </Array>
          </mxGeometry>
        </mxCell>
        <mxCell id="X-M7ohwvojVqTbKEK9S0-44" value="" style="curved=1;endArrow=none;html=1;rounded=0;exitX=0.25;exitY=0.125;exitDx=0;exitDy=0;exitPerimeter=0;entryX=0.75;entryY=0.874;entryDx=0;entryDy=0;entryPerimeter=0;endFill=0;strokeColor=light-dark(#FF3333,#FF3333);" parent="1" edge="1">
          <mxGeometry width="50" height="50" relative="1" as="geometry">
            <mxPoint x="320" y="255" as="sourcePoint" />
            <mxPoint x="200" y="345" as="targetPoint" />
            <Array as="points">
              <mxPoint x="300" y="255" />
              <mxPoint x="260" y="300" />
              <mxPoint x="220" y="345" />
            </Array>
          </mxGeometry>
        </mxCell>
        <mxCell id="5IbWtYIx-Jzg70Vsaze4-23" value="&lt;div&gt;V&lt;sub&gt;R&lt;/sub&gt;&lt;/div&gt;" style="text;html=1;whiteSpace=wrap;strokeColor=none;fillColor=none;align=center;verticalAlign=middle;rounded=0;fontColor=light-dark(#33FF33,#33FF33);convertToSvg=1;" parent="1" vertex="1">
          <mxGeometry x="140" y="238" width="30" height="20" as="geometry" />
        </mxCell>
        <mxCell id="5IbWtYIx-Jzg70Vsaze4-24" value="&lt;div&gt;V&lt;sub&gt;L&lt;/sub&gt;&lt;/div&gt;" style="text;html=1;whiteSpace=wrap;strokeColor=none;fillColor=none;align=center;verticalAlign=middle;rounded=0;fontColor=light-dark(#FF3333,#FF3333);convertToSvg=1;" parent="1" vertex="1">
          <mxGeometry x="150" y="330" width="30" height="20" as="geometry" />
        </mxCell>
        <mxCell id="j2CR8f1PHqKJb8Jv-K0H-22" value="" style="pointerEvents=1;verticalLabelPosition=bottom;shadow=0;dashed=0;align=center;html=1;verticalAlign=top;shape=mxgraph.electrical.waveforms.sine_wave;strokeColor=light-dark(#3399FF,#3399FF);" parent="1" vertex="1">
          <mxGeometry x="80" y="270" width="240" height="60" as="geometry" />
        </mxCell>
        <mxCell id="j2CR8f1PHqKJb8Jv-K0H-28" value="" style="endArrow=classic;startArrow=classic;html=1;rounded=0;strokeColor=default;align=center;verticalAlign=middle;fontFamily=Helvetica;fontSize=11;fontColor=default;labelBackgroundColor=default;edgeStyle=orthogonalEdgeStyle;" parent="1" edge="1">
          <mxGeometry width="50" height="50" relative="1" as="geometry">
            <mxPoint x="79.71" y="349" as="sourcePoint" />
            <mxPoint x="139.71" y="349" as="targetPoint" />
          </mxGeometry>
        </mxCell>
        <mxCell id="j2CR8f1PHqKJb8Jv-K0H-31" value="" style="edgeStyle=none;orthogonalLoop=1;jettySize=auto;html=1;rounded=0;strokeColor=light-dark(#FF3333,#FF3333);align=center;verticalAlign=middle;fontFamily=Helvetica;fontSize=11;fontColor=default;labelBackgroundColor=default;endArrow=classic;endFill=1;" parent="1" edge="1">
          <mxGeometry width="80" relative="1" as="geometry">
            <mxPoint x="400" y="360" as="sourcePoint" />
            <mxPoint x="400" y="240" as="targetPoint" />
            <Array as="points" />
          </mxGeometry>
        </mxCell>
        <mxCell id="j2CR8f1PHqKJb8Jv-K0H-32" value="" style="edgeStyle=none;orthogonalLoop=1;jettySize=auto;html=1;rounded=0;strokeColor=light-dark(#33FF33,#33FF33);align=center;verticalAlign=middle;fontFamily=Helvetica;fontSize=11;fontColor=default;labelBackgroundColor=default;endArrow=classic;endFill=1;" parent="1" edge="1">
          <mxGeometry width="80" relative="1" as="geometry">
            <mxPoint x="400" y="360" as="sourcePoint" />
            <mxPoint x="560.8333333333334" y="360" as="targetPoint" />
            <Array as="points" />
          </mxGeometry>
        </mxCell>
        <mxCell id="j2CR8f1PHqKJb8Jv-K0H-33" value="" style="edgeStyle=none;orthogonalLoop=1;jettySize=auto;html=1;rounded=0;strokeColor=default;align=center;verticalAlign=middle;fontFamily=Helvetica;fontSize=11;fontColor=default;labelBackgroundColor=default;endArrow=classic;endFill=1;" parent="1" edge="1">
          <mxGeometry width="80" relative="1" as="geometry">
            <mxPoint x="400" y="360" as="sourcePoint" />
            <mxPoint x="560" y="240" as="targetPoint" />
            <Array as="points" />
          </mxGeometry>
        </mxCell>
        <mxCell id="j2CR8f1PHqKJb8Jv-K0H-34" value="" style="edgeStyle=none;orthogonalLoop=1;jettySize=auto;html=1;rounded=0;strokeColor=light-dark(#3399FF,#3399FF);align=center;verticalAlign=middle;fontFamily=Helvetica;fontSize=11;fontColor=default;labelBackgroundColor=default;endArrow=classic;endFill=1;" parent="1" edge="1">
          <mxGeometry width="80" relative="1" as="geometry">
            <mxPoint x="400" y="360" as="sourcePoint" />
            <mxPoint x="500" y="360" as="targetPoint" />
            <Array as="points" />
          </mxGeometry>
        </mxCell>
        <mxCell id="j2CR8f1PHqKJb8Jv-K0H-36" value="" style="verticalLabelPosition=bottom;verticalAlign=top;html=1;shape=mxgraph.basic.arc;startAngle=0.08840957382409198;endAngle=0.25159149638245415;fontFamily=Helvetica;fontSize=11;fontColor=default;labelBackgroundColor=default;" parent="1" vertex="1">
          <mxGeometry x="400" y="340" width="30" height="40" as="geometry" />
        </mxCell>
        <mxCell id="j2CR8f1PHqKJb8Jv-K0H-38" value="&lt;div&gt;V&lt;sub&gt;L&lt;/sub&gt;&lt;/div&gt;" style="text;html=1;whiteSpace=wrap;strokeColor=none;fillColor=none;align=center;verticalAlign=middle;rounded=0;fontColor=light-dark(#FF3333,#FF3333);convertToSvg=1;" parent="1" vertex="1">
          <mxGeometry x="370" y="240" width="30" height="20" as="geometry" />
        </mxCell>
        <mxCell id="j2CR8f1PHqKJb8Jv-K0H-40" value="&lt;div&gt;V&lt;sub&gt;R&lt;/sub&gt;&lt;/div&gt;" style="text;html=1;whiteSpace=wrap;strokeColor=none;fillColor=none;align=center;verticalAlign=middle;rounded=0;fontColor=light-dark(#33FF33,#33FF33);convertToSvg=1;" parent="1" vertex="1">
          <mxGeometry x="530" y="360" width="30" height="20" as="geometry" />
        </mxCell>
        <mxCell id="j2CR8f1PHqKJb8Jv-K0H-43" value="I" style="text;html=1;whiteSpace=wrap;strokeColor=none;fillColor=none;align=center;verticalAlign=middle;rounded=0;fontColor=light-dark(#3333FF,#3399FF);convertToSvg=1;" parent="1" vertex="1">
          <mxGeometry x="470" y="360" width="20" height="20" as="geometry" />
        </mxCell>
        <mxCell id="j2CR8f1PHqKJb8Jv-K0H-48" value="I" style="text;html=1;whiteSpace=wrap;strokeColor=none;fillColor=none;align=center;verticalAlign=middle;rounded=0;fontColor=light-dark(#3333FF,#3399FF);convertToSvg=1;" parent="1" vertex="1">
          <mxGeometry x="221" y="297" width="20" height="20" as="geometry" />
        </mxCell>
        <mxCell id="j2CR8f1PHqKJb8Jv-K0H-45" value="" style="curved=1;endArrow=none;html=1;rounded=0;exitX=0.25;exitY=0.125;exitDx=0;exitDy=0;exitPerimeter=0;entryX=0.75;entryY=0.874;entryDx=0;entryDy=0;entryPerimeter=0;endFill=0;strokeColor=light-dark(#000000,#FFFFFF);" parent="1" edge="1">
          <mxGeometry width="50" height="50" relative="1" as="geometry">
            <mxPoint x="112" y="240" as="sourcePoint" />
            <mxPoint x="232" y="359.84" as="targetPoint" />
            <Array as="points">
              <mxPoint x="132" y="240" />
              <mxPoint x="172" y="300" />
              <mxPoint x="212" y="360" />
            </Array>
          </mxGeometry>
        </mxCell>
        <mxCell id="j2CR8f1PHqKJb8Jv-K0H-46" value="" style="curved=1;endArrow=none;html=1;rounded=0;entryX=0.75;entryY=0.874;entryDx=0;entryDy=0;entryPerimeter=0;endFill=0;strokeColor=light-dark(#000000,#FFFFFF);exitX=1.004;exitY=0.157;exitDx=0;exitDy=0;exitPerimeter=0;" parent="1" source="X-M7ohwvojVqTbKEK9S0-22" edge="1">
          <mxGeometry width="50" height="50" relative="1" as="geometry">
            <mxPoint x="330" y="246.66666666666666" as="sourcePoint" />
            <mxPoint x="232" y="360" as="targetPoint" />
            <Array as="points">
              <mxPoint x="313" y="264" />
              <mxPoint x="292" y="300" />
              <mxPoint x="252" y="360" />
            </Array>
          </mxGeometry>
        </mxCell>
        <mxCell id="j2CR8f1PHqKJb8Jv-K0H-47" value="" style="curved=1;endArrow=none;html=1;rounded=0;exitX=0.25;exitY=0.125;exitDx=0;exitDy=0;exitPerimeter=0;endFill=0;strokeColor=light-dark(#000000,#FFFFFF);" parent="1" edge="1">
          <mxGeometry width="50" height="50" relative="1" as="geometry">
            <mxPoint x="112" y="240" as="sourcePoint" />
            <mxPoint x="80" y="260" as="targetPoint" />
            <Array as="points">
              <mxPoint x="92" y="240" />
            </Array>
          </mxGeometry>
        </mxCell>
        <mxCell id="j2CR8f1PHqKJb8Jv-K0H-50" value="&lt;div&gt;V&lt;sub&gt;S&lt;/sub&gt;&lt;/div&gt;" style="text;html=1;whiteSpace=wrap;strokeColor=none;fillColor=none;align=center;verticalAlign=middle;rounded=0;fontColor=light-dark(#000000,#FFFFFF);convertToSvg=1;" parent="1" vertex="1">
          <mxGeometry x="95" y="220" width="30" height="20" as="geometry" />
        </mxCell>
        <mxCell id="j2CR8f1PHqKJb8Jv-K0H-51" value="&lt;div&gt;V&lt;sub&gt;S&lt;/sub&gt;&lt;/div&gt;" style="text;html=1;whiteSpace=wrap;strokeColor=none;fillColor=none;align=center;verticalAlign=middle;rounded=0;fontColor=light-dark(#000000,#FFFFFF);convertToSvg=1;" parent="1" vertex="1">
          <mxGeometry x="540" y="250" width="30" height="20" as="geometry" />
        </mxCell>
        <mxCell id="j2CR8f1PHqKJb8Jv-K0H-52" value="$$\theta$$" style="text;html=1;whiteSpace=wrap;strokeColor=none;fillColor=none;align=center;verticalAlign=middle;rounded=0;fontFamily=Helvetica;fontSize=11;fontColor=default;labelBackgroundColor=default;" parent="1" vertex="1">
          <mxGeometry x="110" y="320" width="30" height="20" as="geometry" />
        </mxCell>
        <mxCell id="j2CR8f1PHqKJb8Jv-K0H-53" value="" style="endArrow=classic;startArrow=classic;html=1;rounded=0;strokeColor=default;align=center;verticalAlign=middle;fontFamily=Helvetica;fontSize=11;fontColor=default;labelBackgroundColor=default;edgeStyle=orthogonalEdgeStyle;" parent="1" edge="1">
          <mxGeometry width="50" height="50" relative="1" as="geometry">
            <mxPoint x="110" y="319" as="sourcePoint" />
            <mxPoint x="140" y="319" as="targetPoint" />
          </mxGeometry>
        </mxCell>
        <mxCell id="j2CR8f1PHqKJb8Jv-K0H-54" value="" style="edgeStyle=none;orthogonalLoop=1;jettySize=auto;html=1;rounded=0;strokeColor=default;align=center;verticalAlign=middle;fontFamily=Helvetica;fontSize=11;fontColor=default;labelBackgroundColor=default;endArrow=none;endFill=0;" parent="1" edge="1">
          <mxGeometry width="80" relative="1" as="geometry">
            <mxPoint x="140" y="360" as="sourcePoint" />
            <mxPoint x="140" y="310" as="targetPoint" />
            <Array as="points" />
          </mxGeometry>
        </mxCell>
        <mxCell id="j2CR8f1PHqKJb8Jv-K0H-55" value="" style="edgeStyle=none;orthogonalLoop=1;jettySize=auto;html=1;rounded=0;strokeColor=default;align=center;verticalAlign=middle;fontFamily=Helvetica;fontSize=11;fontColor=default;labelBackgroundColor=default;endArrow=none;endFill=0;" parent="1" edge="1">
          <mxGeometry width="80" relative="1" as="geometry">
            <mxPoint x="109.64" y="330" as="sourcePoint" />
            <mxPoint x="109.64" y="310" as="targetPoint" />
            <Array as="points" />
          </mxGeometry>
        </mxCell>
      </root>
    </mxGraphModel>
  </diagram>
</mxfile>
